<svg viewBox="0 0 47 37" xmlns="http://www.w3.org/2000/svg" xmlns:xlink="http://www.w3.org/1999/xlink" id="icons" overflow="hidden"><g><path d="M35 35 8.4 35 2 28.6 2 2 35 2 35 10 37 10 37 2C37 0.9 36.1 0 35 0L2 0C0.9 0 0 0.9 0 2L0 29C0 29.3 0.1 29.5 0.3 29.7L7.3 36.7C7.5 36.9 7.7 37 8 37L35 37C36.1 37 37 36.1 37 35L37 27 35 27 35 35Z" fill="#5F249F"/><path d="M10 34 10 28C10 27.4 9.6 27 9 27L3 27 3 29 8 29 8 34 10 34Z" fill="#5F249F"/><path d="M46.7 11.3C46.7 11.3 46.7 11.3 46.7 11.3L42.7 7.3C42.3 6.9 41.7 6.9 41.3 7.3 41.3 7.3 41.3 7.3 41.3 7.3L28.5 20.1 24.7 16.3C24.3 15.9 23.7 15.9 23.3 16.3 23.3 16.3 23.3 16.3 23.3 16.3L19.3 20.3C18.9 20.7 18.9 21.3 19.3 21.7 19.3 21.7 19.3 21.7 19.3 21.7L27.8 30.2C28.2 30.6 28.8 30.6 29.2 30.2 29.2 30.2 29.2 30.2 29.2 30.2L46.7 12.7C47.1 12.3 47.1 11.7 46.7 11.3ZM28.5 28.1 21.4 21 24 18.4 27.8 22.2C28.2 22.6 28.8 22.6 29.2 22.2 29.2 22.2 29.2 22.2 29.2 22.2L42 9.4 44.6 12 28.5 28.1Z" fill="#5F249F"/></g></svg>