<svg viewBox="0 0 44 47.1" xmlns="http://www.w3.org/2000/svg" xmlns:xlink="http://www.w3.org/1999/xlink" id="icons" overflow="hidden"><g><path d="M22 3.1 18 3.1 18 0 9.4 7.1 18 14.2 18 11.1 22 11.1C29.8 11.1 36.1 17.3 36.1 25.1 36.1 32.9 29.9 39.2 22.1 39.2 14.4 39.3 8 33 8 25.3 8 21.3 9.7 17.5 12.6 14.8L13.4 14.1 7.7 8.4 7 9.1C2.5 13.2 0 19.1 0 25.1 0 37.3 9.8 47.1 22 47.1 34.2 47.1 44 37.3 44 25.1 44 12.9 34.2 3.1 22 3.1ZM22 45.1C11 45.1 2 36.1 2 25.1 2 19.9 4 14.9 7.7 11.2L10.5 14C4.4 20.4 4.6 30.5 10.9 36.6 17.3 42.7 27.4 42.5 33.5 36.2 39.6 29.8 39.4 19.7 33.1 13.6 30.1 10.7 26.1 9.1 22 9.1L16 9.1 16 10 12.6 7.1 16 4.3 16 5.2 22 5.2C33 5.2 42 14.2 42 25.2 42 36.2 33 45.1 22 45.1Z" fill="#5A2F92"/><path d="M20.7 24.9C21.1 24.4 21.4 23.9 21.6 23.4 21.8 22.9 21.9 22.3 21.9 21.7 21.8 20 20.6 18.7 19 18.4 16.8 18 14.5 19 13.3 21L15 22.1C15.7 20.9 17.1 20.2 18.5 20.4 19.9 20.8 19.9 21.7 19.9 21.8 19.9 22.1 19.9 22.4 19.7 22.7 19.5 23.1 19.3 23.4 19.1 23.7 18.6 24.4 18 25 17.3 25.5L14 28.8 14 31.2 22 31.2 22 29.2 16.5 29.2 18.8 27C19.4 26.3 20.1 25.6 20.7 24.9Z" fill="#5A2F92"/><path d="M23 25.4 23 28.2 28 28.2 28 31.2 30 31.2 30 28.2 31 28.2 31 26.2 30 26.2 30 18.2 27.6 18.2 27.6 18.1 23 25.4ZM28 21.3 28 26.1 25 26.1 25 26 28 21.3Z" fill="#5A2F92"/></g></svg>