<svg viewBox="0 0 40.6 45" xmlns="http://www.w3.org/2000/svg" xmlns:xlink="http://www.w3.org/1999/xlink" id="icons" overflow="hidden"><g><path d="M30.6 39.7C29.8 39.5 29.3 38.8 29.3 38L29.3 37 27.3 37 27.3 38C27.3 39.7 28.4 41.2 30 41.6L40 45 40.6 43.1 30.6 39.7Z" fill="#5F249F"/><path d="M35.3 26 35.3 25 36.3 25C38 25 39.3 23.7 39.3 22L39.3 18C39.3 16.3 38 15 36.3 15L36.3 17C36.9 17 37.3 17.4 37.3 18L37.3 22C37.3 22.6 36.9 23 36.3 23L35.3 23 35.3 11C35.3 4.9 30.4 0 24.3 0L19.3 0C13.2 0 8.3 4.9 8.3 11L8.3 23 7.3 23C6.7 23 6.3 22.6 6.3 22L6.3 18C6.3 17.4 6.7 17 7.3 17L7.3 15C5.6 15 4.3 16.3 4.3 18L4.3 22C4.3 23.7 5.6 25 7.3 25L8.3 25 8.3 26C8.3 28.4 9.9 31.5 12.3 33.6L12.3 37.9C12.3 38.7 11.8 39.5 11 39.8L0 43 0.6 45 11.6 41.7C13.2 41.2 14.3 39.6 14.3 37.9L14.3 35C14.9 35.3 15.6 35.6 16.3 35.8L16.8 33.9C15.9 33.7 15.1 33.2 14.3 32.7L14.3 32.5 14.1 32.5C11.8 30.8 10.3 28 10.3 26L10.3 11C10.3 6 14.3 2 19.3 2L24.3 2C29.3 2 33.3 6 33.3 11L33.3 14.9 32.6 14.4 32.5 14.3C31.2 13.5 29.8 13 28.2 13L19 13C15.9 13 14.1 9.6 14.1 9.6L12.3 10.5C12.4 10.7 14.6 15 19 15L28.2 15C29.3 15 30.4 15.3 31.3 15.9L33.2 17.5 33.2 26C33.2 28.9 30 33.4 26 33.9 25.6 32.7 24.4 32 23.2 32L21.2 32C19.5 32 18.2 33.3 18.2 35 18.2 36.7 19.5 38 21.2 38L23.2 38C24.5 38 25.6 37.2 26 36 31.1 35.4 35.3 30.2 35.3 26ZM23.3 36 21.3 36C20.7 36 20.3 35.6 20.3 35 20.3 34.4 20.7 34 21.3 34L23.3 34C23.9 34 24.3 34.4 24.3 35 24.3 35.6 23.8 36 23.3 36Z" fill="#5F249F"/></g></svg>