<svg viewBox="0 0 48 42" xmlns="http://www.w3.org/2000/svg" xmlns:xlink="http://www.w3.org/1999/xlink" id="icons" overflow="hidden"><g><path d="M42 40 2 40 2 13 14 13 14 11 2 11 2 7 14 7 14 5 0 5 0 11 0 12 0 42 44 42 44 25 42 25Z" fill="#5F249F"/><path d="M44 0 19 0C16.8 0 15 1.8 15 4L15 17 17 17 17 4C17 2.9 17.9 2 19 2L44 2C45.1 2 46 2.9 46 4L46 20C46 21.1 45.1 22 44 22L34.6 22 27 29.6 27 22 22 22 22 24 25 24 25 29.6C25 30.4 25.5 31.1 26.2 31.4 26.4 31.5 26.7 31.6 27 31.6 27.5 31.6 28 31.4 28.4 31L35.4 24 44 24C46.2 24 48 22.2 48 20L48 4C48 1.8 46.2 0 44 0Z" fill="#5F249F"/><path d="M25 38 25 35.4C25 31.6 18.2 30 16 30 13.8 30 7 31.6 7 35.4L7 38 9 38 9 35.4C9 33.6 13.8 32 16 32 18.2 32 23 33.6 23 35.4L23 38 25 38Z" fill="#5F249F"/><path d="M16 18C13.2 18 11 20.2 11 23L11 24C11 26.8 13.2 29 16 29 18.8 29 21 26.8 21 24L21 23C21 20.2 18.8 18 16 18ZM19 24C19 25.7 17.7 27 16 27 14.3 27 13 25.7 13 24L13 23C13 21.3 14.3 20 16 20 17.7 20 19 21.3 19 23L19 24Z" fill="#5F249F"/><rect x="23" y="11" width="17" height="2" fill="#5F249F"/><rect x="23" y="7" width="17" height="2" fill="#5F249F"/><rect x="23" y="15" width="9" height="2" fill="#5F249F"/><rect x="4" y="8" width="2" height="2" fill="#5F249F"/><rect x="8" y="8" width="2" height="2" fill="#5F249F"/></g></svg>