<svg viewBox="0 0 47 39" xmlns="http://www.w3.org/2000/svg" xmlns:xlink="http://www.w3.org/1999/xlink" id="icons" overflow="hidden"><g><path d="M39.3 23C38.9 22.7 38.3 22.7 37.9 23.1 34.8 26.8 29.7 31 22 36.8 8 26.2 3.1 21.5 2.2 14.9 1.9 13.3 1.4 7.5 5.8 4.1 8.2 2.3 11.3 1.6 14.2 2.2 17.1 2.7 19.7 4.5 21.1 7 21.4 7.5 22 7.6 22.5 7.3 22.6 7.2 22.8 7.1 22.8 7 24.3 4.4 26.9 2.7 29.8 2.2 32.7 1.6 35.8 2.3 38.2 4.1 42.5 7.6 42.1 13.3 41.8 14.9 41.7 15.3 41.6 15.7 41.6 16.1 41.4 16.6 41.7 17.2 42.2 17.4 42.7 17.6 43.3 17.3 43.5 16.8 43.5 16.7 43.5 16.7 43.5 16.6 43.6 16.1 43.7 15.7 43.8 15.2 44.1 13.3 44.6 6.6 39.4 2.5 36.5 0.4 32.9-0.5 29.4 0.2 26.4 0.7 23.7 2.3 21.9 4.7 20.1 2.3 17.4 0.7 14.4 0.2 11-0.4 7.4 0.4 4.5 2.5-0.7 6.6-0.2 13.3 0.1 15.2 1.3 23 7.5 28.4 21.4 38.8 21.6 38.9 21.8 39 22 39 22.2 39 22.4 38.9 22.6 38.8 30.7 32.7 36.1 28.4 39.4 24.4 39.8 24 39.7 23.4 39.3 23 39.3 23 39.3 23 39.3 23Z" fill="#5F249F"/><path d="M46 19 32 19C31.6 19 31.3 19.2 31.1 19.5L30.1 21.6 28 16.6C27.8 16.2 27.5 16 27 16 26.6 16 26.2 16.2 26.1 16.6L22.3 25.6 19 9.8C18.9 9.3 18.4 8.9 17.8 9 17.5 9.1 17.2 9.3 17.1 9.6L13.3 19 7 19C6.4 19 6 19.4 6 20 6 20.6 6.4 21 7 21L14 21C14.4 21 14.8 20.8 14.9 20.4L17.7 13.5 21 29.2C21.1 29.6 21.5 30 21.9 30L22 30C22.4 30 22.8 29.8 22.9 29.4L27 19.6 29.1 24.4C29.3 24.8 29.6 25 30 25 30.4 25 30.7 24.8 30.9 24.5L32.6 21 46 21C46.6 21 47 20.6 47 20 47 19.4 46.6 19 46 19Z" fill="#5F249F"/></g></svg>