<svg viewBox="0 0 43 48" xmlns="http://www.w3.org/2000/svg" xmlns:xlink="http://www.w3.org/1999/xlink" id="icons" overflow="hidden"><g><path d="M3 13 3 17C3 17.8 3.5 18.6 4.3 18.9 4.5 19 4.8 19 5 19 5.6 19 6.1 18.8 6.5 18.3L11.5 13 27 13C28.7 13 30 11.7 30 10L30 3C30 1.3 28.7 0 27 0L3 0C1.3 0 0 1.3 0 3L0 10C0 11.7 1.3 13 3 13ZM2 3C2 2.4 2.4 2 3 2L27 2C27.6 2 28 2.4 28 3L28 10C28 10.6 27.6 11 27 11L10.6 11 5 17 5 11 3 11C2.4 11 2 10.6 2 10L2 3Z" fill="#5F249F"/><path d="M40 15 16 15C14.3 15 13 16.3 13 18L13 25C13 26.7 14.3 28 16 28L31.6 28 36.5 33.3C36.9 33.7 37.4 34 38 34 38.2 34 38.5 34 38.7 33.9 39.5 33.6 40 32.9 40 32L40 28C41.7 28 43 26.7 43 25L43 18C43 16.3 41.7 15 40 15ZM41 25C41 25.6 40.6 26 40 26L38 26 38 32 32.5 26 16 26C15.4 26 15 25.6 15 25L15 18C15 17.4 15.4 17 16 17L40 17C40.6 17 41 17.4 41 18L41 25Z" fill="#5F249F"/><path d="M27 30 3 30C1.3 30 0 31.3 0 33L0 40C0 41.7 1.3 43 3 43L3 46C3 46.8 3.5 47.6 4.3 47.9 4.5 48 4.8 48 5 48 5.5 48 6.1 47.8 6.5 47.4L11.4 43 27 43C28.7 43 30 41.7 30 40L30 33C30 31.3 28.7 30 27 30ZM28 40C28 40.6 27.6 41 27 41L10.6 41 5.1 45.9 5 46 5 41 3 41C2.4 41 2 40.6 2 40L2 33C2 32.4 2.4 32 3 32L27 32C27.6 32 28 32.4 28 33L28 40Z" fill="#5F249F"/></g></svg>