<svg viewBox="0 0 48 46.1" xmlns="http://www.w3.org/2000/svg" xmlns:xlink="http://www.w3.org/1999/xlink" id="icons" overflow="hidden"><g><path d="M29 30.7 28.4 30.4 24.8 34C22 32.8 19.4 31 17.3 28.8 15 26.7 13.3 24.1 12.1 21.3L15.7 17.7 15.4 17.1C14 13.8 12 10.9 9.5 8.3L9.1 7.9 8.5 8C5.6 8.7 2.9 10 0.4 11.7L0 12 0 12.6C0.1 14.4 1.2 24 11.6 34.5 22 45 31.6 46 33.5 46.1L34.1 46.1 34.4 45.6C36.1 43.1 37.4 40.4 38.1 37.5L38.3 36.9 37.9 36.5C35.2 34.1 32.3 32.1 29 30.7ZM33 44C30.6 43.7 22.2 42.2 13 33 3.9 23.8 2.3 15.4 2 13 4 11.7 6.1 10.7 8.4 10.1 10.3 12.2 11.9 14.6 13.2 17.2L9.7 20.7 9.9 21.3C10.1 22 11.2 25.7 15.8 30.2 20.4 34.7 24 35.9 24.7 36.1L25.3 36.3 28.8 32.8C31.4 34 33.8 35.6 36 37.6 35.4 39.9 34.4 42 33 44Z" fill="#5F249F"/><path d="M33 0C24.8 0 18 5.4 18 12 18 18.1 23.7 23.2 31.2 23.9 31.2 25.2 31.1 26.5 30.9 27.7 30.8 28.4 31.1 29.1 31.6 29.6 31.9 29.9 32.3 30 32.7 30 33 30 33.3 29.9 33.5 29.8 35.8 28.7 48 20.8 48 12 48 5.4 41.3 0 33 0ZM32.9 27.9C33.1 26.2 33.2 24.6 33.2 22.9L33.2 22 32.3 22C25.4 21.6 20 17.3 20 12 20 6.5 25.9 2 33 2 40.1 2 46 6.5 46 12 46 19 35.9 26.4 32.9 27.9Z" fill="#5F249F"/><rect x="27" y="11" width="12" height="2" fill="#5F249F"/><rect x="27" y="7" width="12" height="2" fill="#5F249F"/><rect x="27" y="15" width="6" height="2" fill="#5F249F"/></g></svg>