<svg viewBox="0 0 41 44.7" xmlns="http://www.w3.org/2000/svg" xmlns:xlink="http://www.w3.org/1999/xlink" id="icons" overflow="hidden"><g><path d="M39 0 7 0C5.9 0 5 0.9 5 2L5 4 7 4 7 2 39 2 39 22 41 22 41 2C41 0.9 40.1 0 39 0Z" fill="#5F249F"/><path d="M34 5 2 5C0.9 5 0 5.9 0 7L0 42 2 42 2 15 32 15 32 13 2 13 2 7 34 7 34 30 36 30 36 7C36 5.9 35.1 5 34 5Z" fill="#5F249F"/><rect x="4" y="9" width="2" height="2" fill="#5F249F"/><rect x="8" y="9" width="2" height="2" fill="#5F249F"/><rect x="12" y="9" width="2" height="2" fill="#5F249F"/><rect x="34" y="32" width="2" height="2" fill="#5F249F"/><rect x="39" y="28" width="2" height="2" fill="#5F249F"/><rect x="39" y="24" width="2" height="2" fill="#5F249F"/><path d="M30.4 33.2 28.1 32.2C28.2 31.6 28.2 31 28.1 30.4L30.4 29.4C30.9 29.2 31.1 28.7 30.9 28.2L29.3 24.3C29.1 23.8 28.5 23.6 28 23.8L25.7 24.8C25.3 24.3 24.9 23.9 24.4 23.5L25.4 21.2C25.6 20.7 25.4 20.1 24.9 19.9L21 18.3C20.8 18.2 20.5 18.2 20.2 18.3 20 18.4 19.8 18.6 19.7 18.8L18.7 21.1C18.1 21 17.5 21 16.9 21.1L15.9 18.8C15.7 18.3 15.1 18.1 14.6 18.3L10.7 19.9C10.5 20 10.3 20.2 10.2 20.4 10.1 20.6 10.1 20.9 10.2 21.1L11.2 23.4C10.7 23.8 10.3 24.2 9.9 24.7L7.6 23.7C7.4 23.6 7.1 23.6 6.8 23.7 6.6 23.8 6.4 24 6.3 24.2L4.6 28.2C4.4 28.7 4.6 29.3 5.1 29.5 5.1 29.5 5.1 29.5 5.1 29.5L7.4 30.5C7.3 31.1 7.3 31.7 7.4 32.3L5.1 33.3C4.6 33.5 4.3 34.1 4.6 34.6L6 38.5C6.2 39 6.8 39.2 7.3 39L9.6 38C10 38.5 10.4 38.9 10.9 39.3L9.9 41.6C9.7 42.1 9.9 42.7 10.4 42.9L14.3 44.5C14.8 44.7 15.4 44.5 15.6 43.9L16.6 41.6C17.2 41.7 17.8 41.7 18.4 41.6L19.4 43.9C19.6 44.3 19.9 44.5 20.3 44.5 20.4 44.5 20.6 44.5 20.7 44.4L24.6 42.8C24.8 42.7 25 42.5 25.1 42.3 25.2 42.1 25.2 41.8 25.1 41.5L24.1 39.2C24.6 38.8 25 38.4 25.4 37.9L28 39C28.2 39.1 28.5 39.1 28.8 39 29 38.9 29.2 38.7 29.3 38.5L30.9 34.6C31.1 34 30.9 33.4 30.4 33.2ZM27.9 36.8 25.8 35.9C25.4 35.7 24.9 35.9 24.6 36.2 24.1 37 23.4 37.7 22.6 38.2 22.2 38.5 22.1 39 22.3 39.4L23.2 41.5 21 42.4 20.1 40.3C19.9 39.9 19.6 39.7 19.2 39.7L19 39.7C18.1 39.8 17.2 39.8 16.2 39.7 15.7 39.6 15.3 39.9 15.1 40.3L14.2 42.4 12.1 41.5 13 39.4C13.2 39 13 38.5 12.7 38.2 11.9 37.7 11.2 37 10.7 36.2 10.4 35.8 9.9 35.7 9.5 35.8L7.4 36.7 6.6 34.7 8.7 33.8C9.1 33.6 9.4 33.2 9.3 32.7 9.1 31.8 9.1 30.9 9.3 29.9 9.4 29.4 9.1 29 8.7 28.8L6.6 28 7.5 25.9 9.6 26.8C10 27 10.5 26.8 10.8 26.5 11.3 25.7 12 25 12.8 24.5 13.2 24.2 13.3 23.7 13.2 23.3L12.3 21.2 14.4 20.3 15.3 22.4C15.5 22.8 15.9 23.1 16.4 23 17.3 22.9 18.2 22.9 19.1 23 19.6 23.1 20 22.8 20.2 22.4L21.1 20.3 23.2 21.2 22.3 23.3C22.1 23.7 22.3 24.2 22.6 24.5 23.4 25.1 24.1 25.7 24.6 26.5 24.9 26.9 25.4 27 25.8 26.8L27.9 25.9 28.7 27.9 26.6 28.8C26.2 29 25.9 29.5 26 29.9 26.2 30.8 26.2 31.7 26 32.7 25.9 33.2 26.2 33.6 26.6 33.8L28.7 34.7 27.9 36.8Z" fill="#5F249F"/><path d="M15.7 26.6C13.1 27.7 11.8 30.7 12.9 33.3 13.4 34.6 14.4 35.6 15.7 36.1 18.3 37.2 21.3 35.9 22.4 33.3 22.9 32 22.9 30.6 22.4 29.4 21.3 26.8 18.3 25.5 15.7 26.6ZM18.8 34.2C18 34.5 17.2 34.5 16.4 34.2 15.6 33.9 15 33.3 14.7 32.5 14.4 31.7 14.4 30.9 14.7 30.1 15 29.3 15.6 28.7 16.4 28.4 16.8 28.2 17.2 28.2 17.6 28.2 18.9 28.2 20 29 20.5 30.1 21.2 31.8 20.5 33.6 18.8 34.2Z" fill="#5F249F"/></g></svg>